/* XPM */
static char * bottom_active_xpm[] = {
"5 4 3 1",
" 	c None",
".	c #32393C",
"+	c #1C1E1F",
".....",
".....",
".....",
"+++++"};
