/* XPM */
static char * right_active_xpm[] = {
"4 5 3 1",
" 	c None",
".	c #32393C",
"+	c #1C1E1F",
"...+",
"...+",
"...+",
"...+",
"...+"};
