/* XPM */
static char * bottom_left_inactive_xpm[] = {
"4 4 3 1",
" 	c None",
".	c #1C1E1F",
"+	c #32393C",
".+++",
".+++",
".+++",
"...."};
