/* XPM */
static char * close_inactive_xpm[] = {
"9 9 8 1",
" 	c None",
".	c #2E3537",
"+	c #2F3537",
"@	c #BEC0BF",
"#	c #2F3538",
"$	c #2F3638",
"%	c #303639",
"&	c #303739",
".........",
"+++++++++",
"++@@+@@++",
"##@@@@@##",
"$$$@@@$$$",
"$$@@@@@$$",
"%%@@%@@%%",
"&&&&&&&&&",
"&&&&&&&&&"};
