/* XPM */
static char * hide_active_xpm[] = {
"9 9 8 1",
" 	c None",
".	c #2E3537",
"+	c #2F3537",
"@	c #2F3538",
"#	c #2F3638",
"$	c #EEEEEC",
"%	c #303639",
"&	c #303739",
".........",
"+++++++++",
"+++++++++",
"@@@@@@@@@",
"###$$$###",
"###$$$###",
"%%%$$$%%%",
"&&&&&&&&&",
"&&&&&&&&&"};
