/* XPM */
static char * left_active_xpm[] = {
"4 5 3 1",
" 	c None",
".	c #1C1E1F",
"+	c #32393C",
".+++",
".+++",
".+++",
".+++",
".+++"};
