/* XPM */
static char * menu_active_xpm[] = {
"10 10 9 1",
" 	c None",
".	c #2E3537",
"+	c #2F3537",
"@	c #2F3538",
"#	c #EEEEEC",
"$	c #2F3638",
"%	c #303639",
"&	c #303739",
"*	c #30373A",
"..........",
"++++++++++",
"++++++++++",
"@@@#@@#@@@",
"$$######$$",
"$$$####$$$",
"%%%%##%%%%",
"&&&&&&&&&&",
"&&&&&&&&&&",
"**********"};
