/* XPM */
static char * title_1_inactive_xpm[] = {
"5 20 13 1",
" 	c #1C1E1F",
".	c #363F42",
"+	c #2E3436",
"@	c #2E3537",
"#	c #2F3537",
"$	c #2F3538",
"%	c #2F3638",
"&	c #303639",
"*	c #303739",
"=	c #30373A",
"-	c #31373A",
";	c #31383A",
">	c #31383B",
"     ",
".....",
"+++++",
"+++++",
"+++++",
"+++++",
"@@@@@",
"#####",
"#####",
"$$$$$",
"%%%%%",
"%%%%%",
"&&&&&",
"*****",
"*****",
"=====",
"-----",
";;;;;",
">>>>>",
">>>>>"};
